<svg width="16" height="25" viewBox="0 0 16 25" fill="none" xmlns="http://www.w3.org/2000/svg">
<g clip-path="url(#clip0_1_2309)">
<path d="M13.53 0.5C13.8633 0.833332 14.03 1.24167 14.03 1.725C14.03 2.20833 13.8633 2.61667 13.53 2.95L4.18001 12.325L13.53 21.7C13.8633 22.0333 14.03 22.4375 14.03 22.9125C14.03 23.3875 13.8675 23.7917 13.5425 24.125C13.2175 24.4583 12.8133 24.625 12.33 24.625C11.8467 24.625 11.4383 24.4583 11.105 24.125L0.505005 13.525C0.171672 13.1917 0.00500488 12.7875 0.00500488 12.3125C0.00500488 11.8375 0.171672 11.4333 0.505005 11.1L11.105 0.5C11.4383 0.166666 11.8467 0 12.33 0C12.8133 0 13.2133 0.166666 13.53 0.5Z" fill="#14142B"/>
</g>
<defs>
<clipPath id="clip0_1_2309">
<rect width="15.02" height="25" fill="white" transform="matrix(1 0 0 -1 0 25)"/>
</clipPath>
</defs>
</svg>
