<svg width="106" height="106" viewBox="0 0 106 106" fill="none" xmlns="http://www.w3.org/2000/svg">
<path d="M41.69 70.9749C40.7288 67.7247 38.1867 65.1826 34.9365 64.2214L0.895503 54.1542C-0.298506 53.8011 -0.298501 52.11 0.895508 51.7569L34.9365 41.6897C38.1867 40.7285 40.7288 38.1864 41.69 34.9362L51.7571 0.89529C52.1102 -0.29872 53.8013 -0.298714 54.1545 0.895295L64.2216 34.9363C65.1828 38.1865 67.7249 40.7285 70.9751 41.6897L105.016 51.7569C106.21 52.11 106.21 53.8011 105.016 54.1542L70.9751 64.2214C67.7249 65.1826 65.1828 67.7247 64.2216 70.9749L54.1545 105.016C53.8013 106.21 52.1102 106.21 51.7571 105.016L41.69 70.9749Z" fill="#B9FD50"/>
</svg>
