<svg width="40" height="40" viewBox="0 0 40 40" fill="none" xmlns="http://www.w3.org/2000/svg">
<path d="M20 40C31.0457 40 40 31.0457 40 20C40 8.9543 31.0457 0 20 0C8.9543 0 0 8.9543 0 20C0 31.0457 8.9543 40 20 40Z" fill="#B9FD50"/>
<path d="M25.8758 17.6258L24.0633 23.3383C24.0633 22.9008 22.8133 13.4258 22.8133 13.4258C19.9383 13.4258 18.4133 15.4633 17.6133 17.6258L15.4008 23.3508C15.4008 22.9383 15.0883 17.6758 15.0883 17.6758C14.9816 16.5366 14.4608 15.476 13.6245 14.6951C12.7883 13.9141 11.6946 13.4669 10.5508 13.4383L12.9008 27.7883C15.9008 27.7883 17.5258 25.7508 18.3633 23.5883L20.2383 18.7133C20.2383 18.9133 21.4883 27.7883 21.4883 27.7883C22.715 27.7867 23.9094 27.3945 24.8983 26.6686C25.8872 25.9427 26.6192 24.9207 26.9883 23.7508L31.2383 13.4258C28.2383 13.4258 26.6633 15.4633 25.8633 17.6258H25.8758Z" fill="#111204"/>
</svg>
